<?xml version="1.0" encoding="utf-8"?>
<!-- Generator: Adobe Illustrator 22.1.0, SVG Export Plug-In . SVG Version: 6.00 Build 0)  -->
<svg version="1.1" id="Layer_1" xmlns="http://www.w3.org/2000/svg" xmlns:xlink="http://www.w3.org/1999/xlink" x="0px" y="0px"
	 viewBox="0 0 500 500" style="enable-background:new 0 0 500 500;" xml:space="preserve">
	 <style type="text/css">.st0{fill:#555555;} .st1{fill:#555555;}</style>
<g>
	<path class="st0" d="M333.3,213.6c0,17.7,0,33.4,0,50.1c-44.4,7.7-83.5-7.3-123.5-28.9c8.6,34.3,16.7,66.3,25,99.3c32.4,0,64.4,0.7,96.3-0.3
		c14.9-0.4,26.5,3.5,38.2,13c39.4,31.9,79.8,62.6,119.6,93.6c-11.8,11.3-23.4,22.4-36.5,34.9c-12.6-9.8-28.8-19.7-41.7-32.8
		c-30.1-30.9-65.2-41.3-108-37.7c-38.1,3.2-76.8,1.4-115-1.1c-29.2-1.9-52.3-24.3-59-52.6c-11.3-47.5-22.2-95.2-32.8-142.9
		c-5.3-23.9,4.4-46.4,24.2-58.7c19.1-11.8,43.3-10.4,62.2,3.8c6.1,4.6,12.5,9,18.2,14C238.4,200.1,280.3,221.3,333.3,213.6z"/>
	<path class="st0" d="M345.6,477.8c-29.8,0-59.1,0-88.5,0c-29.4-0.1-59.1,1.7-88.3-0.7c-59.5-4.9-98.7-42.4-111.3-103.7
		c-15.6-75.8-30.9-151.6-46.3-227.4c-0.2-0.8,0.2-1.7,0.3-3.3c15.1,0,30.3,0,46.6,0c7.3,34.4,14.6,68.7,21.8,103.1
		c8.8,42.4,17.2,85,26.1,127.4c6.9,32.9,35.9,56.1,70,56.2c51.6,0.2,103.3,0.1,154.9,0.1c4.6,0,9.3,0,14.7,0
		C345.6,445.4,345.6,460.6,345.6,477.8z"/>
	<path class="st0" d="M118.3,116.7c-26.5,0-48.2-21.4-48.2-47.7c0-26.3,21.7-47.4,48.5-47.3c26.1,0.1,47,20.8,47.3,47.1
		C166.4,95.2,145.1,116.7,118.3,116.7z"/>
</g>
</svg>
