<?xml version="1.0" encoding="utf-8"?>
<!-- Generator: Adobe Illustrator 22.1.0, SVG Export Plug-In . SVG Version: 6.00 Build 0)  -->
<svg version="1.1" id="Layer_1" xmlns="http://www.w3.org/2000/svg" xmlns:xlink="http://www.w3.org/1999/xlink" x="0px" y="0px"
	 viewBox="0 0 500 500" style="enable-background:new 0 0 500 500;" xml:space="preserve">
	 <style type="text/css">.st0{fill:#005DBA;} .st1{fill:#005DBA;}</style>
<g>
	<path class="st0" d="M259.1,341.5l-10.9,3.2c-20,5.9-41-5.6-46.8-25.5l-41.3-140.3c-5.9-20,5.6-41,25.5-46.8l10.9-3.2c20-5.9,41,5.6,46.8,25.5
		l41.3,140.3C290.5,314.6,279.1,335.6,259.1,341.5z"/>
	<circle class="st0" cx="177.1" cy="81.4" r="42.6"/>
	<path class="st0" d="M380.7,343.3H231.2c-12.5,0-22.6-10.1-22.6-22.6v-6.8c0-12.5,10.1-22.6,22.6-22.6h149.5c12.5,0,22.6,10.1,22.6,22.6v6.8
		C403.3,333.2,393.2,343.3,380.7,343.3z"/>
	<path class="st0" d="M440.3,446.9L357.6,333c-7.8-11.1-5.2-26.5,5.9-34.3l2.2-1.6c11.1-7.8,26.5-5.2,34.3,5.9l82.8,113.9
		c7.8,11.1,5.2,26.5-5.9,34.3l-2.2,1.6C463.5,460.6,448.2,458,440.3,446.9z"/>
	<path class="st0" d="M241.7,344.8h135.5c0,0,24.4-1.3,25.9-26.3s-25.2,8.1-25.2,8.1l-121.5,2.9L241.7,344.8z"/>
	<path class="st0" d="M393.6,410.6c-4.7-18.5-20.9-31.2-40.1-31.2c-53.2,0-106.4,0-159.6,0c-5.9,0-10.1-3.1-11.9-8.7
		c-4.2-13.2-8.3-26.5-12.4-39.8c-10.2-32.9-20.4-65.8-30.6-98.6c-9.1-29.2-12.2-40.8-21.3-70c-6.7-20.8-28-27.5-28-27.5
		c7.5-9.6,4.7-30.7,1.4-41.9c-3.7-12.2-11-23.6-23.1-28.6c-11.3-4.6-24.4-2.6-34.6,3.9c-1.8,1.2-3.6,2.5-5.2,3.9
		c-13,11.4-18.1,25.8-14.1,42.7c2.4,10.1,5.9,20,9,29.9c11.2,36.1,19,62.9,30.2,99c9.9,32,19.8,64,29.7,96c5.9,19,12,38,17.6,57.1
		c4,13.7,9.7,26.4,19.4,37.1c7,7.7,15.1,13.9,24.4,18.6c12.5,6.3,25.8,8.8,39.8,8.7c27.3-0.2,54.6,0,81.8,0c28.9,0,57.9,0,86.8,0
		c3.2,0,6.4-0.3,9.5-0.9C384.7,455.6,399.1,432.7,393.6,410.6z"/>
</g>
</svg>
